# xmcd CD database file
#
# Track frame offsets:
#	150
#	17417
#	34982
#	56927
#	74332
#	90087
#	105587
#	115402
#	127607
#	144207
#
# Disc length: 2248 seconds
#
# Revision: 0
# Processed by: cddbd v1.5.1PL0 Copyright (c) Steve Scherf et al.
# Submitted via: CDex 1.51
#
DISCID=7908c60a
DTITLE=市井由理 - YURI from tokyo performance doll
DYEAR=1993
DGENRE=JPop
TTITLE0=ビバ！ケ・セラ・セラ[LATIN MIX]
TTITLE1=おちゃめなジュリエット[ROCK'N'ROLL PARTY MIX]
TTITLE2=カチンときちゃう！[TEA PARTY MIX]
TTITLE3=悲しきBOY
TTITLE4=通り過ぎた風
TTITLE5=恋して女みがいて
TTITLE6=レモンのKiss(LIKE I DO)
TTITLE7=イチゴの片思い(TONIGHT YOU BELONG TO ME)[STRAWBERRY SHAKE MIX]
TTITLE8=Oh! Mambo
TTITLE9=ビバ！ケ・セラ・セラ[MEGA VIVA! MIX]
EXTD=YEAR: 1993
EXTT0=
EXTT1=
EXTT2=
EXTT3=
EXTT4=
EXTT5=
EXTT6=
EXTT7=
EXTT8=
EXTT9=
PLAYORDER=
